ffmpeg started on 2025-06-06 at 18:23:43
Report written to "D:\Convert\FFMetrics\reports\ssim_report-6.txt"
Log level: 32
Command line:
ffmpeg -hide_banner -nostdin -i "G:\\\xc0\xed\xe8\xec\xe5\\\xce\xed\xe3\xee\xe8\xed\xe3\xe8\\!_36_\xce\xf1\xe5\xed\xfc_2024\\DreamCast\\\xcf\xf0\xee\xf9\xe0\xe9, \xe6\xe8\xe7\xed\xfc \xe4\xf0\xe0\xea\xee\xed\xe0. \xc7\xe4\xf0\xe0\xe2\xf1\xf2\xe2\xf3\xe9, \xe6\xe8\xe7\xed\xfc \xf7\xe5\xeb\xee\xe2\xe5\xea\xe0\\[DC] Sayonara Ryuusei Konnichiwa Jinsei - 07_Telegram_HEVC.mkv" -i "G:\\\xc0\xed\xe8\xec\xe5\\\xce\xed\xe3\xee\xe8\xed\xe3\xe8\\!_36_\xce\xf1\xe5\xed\xfc_2024\\DreamCast\\\xcf\xf0\xee\xf9\xe0\xe9, \xe6\xe8\xe7\xed\xfc \xe4\xf0\xe0\xea\xee\xed\xe0. \xc7\xe4\xf0\xe0\xe2\xf1\xf2\xe2\xf3\xe9, \xe6\xe8\xe7\xed\xfc \xf7\xe5\xeb\xee\xe2\xe5\xea\xe0\\[DC] Sayonara Ryuusei Konnichiwa Jinsei - 07_Telegram.mp4" -lavfi "[0:v]settb=AVTB,setpts=PTS-STARTPTS,format=pix_fmts=yuv420p10,fps=24000/1001,scale=1920:1080:flags=bicubic[main];[1:v]settb=AVTB,setpts=PTS-STARTPTS,format=pix_fmts=yuv420p,fps=24000/1001,scale=1920:1080:flags=bicubic[ref];[main][ref]ssim=eof_action=endall:stats_file='D\\:/Convert/FFMetrics/logs/ssim_logfile-6.txt'" -f null -
Input #0, matroska,webm, from 'G:\Аниме\Онгоинги\!_36_Осень_2024\DreamCast\Прощай, жизнь дракона. Здравствуй, жизнь человека\[DC] Sayonara Ryuusei Konnichiwa Jinsei - 07_Telegram_HEVC.mkv':
  Metadata:
    COMPATIBLE_BRANDS: isomiso2avc1mp41
    MAJOR_BRAND     : isom
    MINOR_VERSION   : 512
    ENCODER         : Lavf61.7.100
  Duration: 00:24:16.85, start: -0.021000, bitrate: 1196 kb/s
  Stream #0:0: Video: hevc (Main 10), yuv420p10le(tv, bt709, progressive), 1920x1080 [SAR 1:1 DAR 16:9], 23.98 fps, 23.98 tbr, 1k tbn (default)
      Metadata:
        HANDLER_NAME    : VideoHandler
        VENDOR_ID       : [0][0][0][0]
        ENCODER         : Lavc61.19.100 libx265
        BPS             : 998447
        DURATION        : 00:24:16.538708333
        NUMBER_OF_FRAMES: 34922
        NUMBER_OF_BYTES : 181784674
        _STATISTICS_WRITING_APP: mkvpropedit v66.0.0 ('Josie') 64-bit
        _STATISTICS_WRITING_DATE_UTC: 2025-06-03 10:19:23
        _STATISTICS_TAGS: BPS DURATION NUMBER_OF_FRAMES NUMBER_OF_BYTES
  Stream #0:1: Audio: aac (LC), 48000 Hz, stereo, fltp (default)
      Metadata:
        HANDLER_NAME    : SoundHandler
        VENDOR_ID       : [0][0][0][0]
        ENCODER         : Lavc61.19.100 aac
        BPS             : 193894
        DURATION        : 00:24:16.853000000
        NUMBER_OF_FRAMES: 68291
        NUMBER_OF_BYTES : 35309475
        _STATISTICS_WRITING_APP: mkvpropedit v66.0.0 ('Josie') 64-bit
        _STATISTICS_WRITING_DATE_UTC: 2025-06-03 10:19:23
        _STATISTICS_TAGS: BPS DURATION NUMBER_OF_FRAMES NUMBER_OF_BYTES
Input #1, mov,mp4,m4a,3gp,3g2,mj2, from 'G:\Аниме\Онгоинги\!_36_Осень_2024\DreamCast\Прощай, жизнь дракона. Здравствуй, жизнь человека\[DC] Sayonara Ryuusei Konnichiwa Jinsei - 07_Telegram.mp4':
  Metadata:
    major_brand     : isom
    minor_version   : 512
    compatible_brands: isomiso2avc1mp41
    encoder         : Lavf61.1.100
  Duration: 00:24:16.83, start: 0.000000, bitrate: 3778 kb/s
  Stream #1:0[0x1](und): Video: h264 (High) (avc1 / 0x31637661), yuv420p(tv, bt709, progressive), 1920x1080 [SAR 1:1 DAR 16:9], 3631 kb/s, 23.98 fps, 23.98 tbr, 24k tbn (default)
      Metadata:
        handler_name    : VideoHandler
        vendor_id       : [0][0][0][0]
        encoder         : Lavc61.3.100 h264_qsv
  Stream #1:1[0x2](und): Audio: aac (HE-AACv2) (mp4a / 0x6134706D), 48000 Hz, stereo, fltp, 144 kb/s (default)
      Metadata:
        handler_name    : SoundHandler
        vendor_id       : [0][0][0][0]
Stream mapping:
  Stream #0:0 (hevc) -> settb:default
  Stream #1:0 (h264) -> settb:default
  ssim:default -> Stream #0:0 (wrapped_avframe)
  Stream #0:1 -> #0:1 (aac (native) -> pcm_s16le (native))
Output #0, null, to 'pipe:':
  Metadata:
    COMPATIBLE_BRANDS: isomiso2avc1mp41
    MAJOR_BRAND     : isom
    MINOR_VERSION   : 512
    encoder         : Lavf61.7.100
  Stream #0:0: Video: wrapped_avframe, yuv420p10le(tv, bt709, progressive), 1920x1080 [SAR 1:1 DAR 16:9], q=2-31, 200 kb/s, 23.98 fps, 23.98 tbn
      Metadata:
        encoder         : Lavc61.19.100 wrapped_avframe
  Stream #0:1: Audio: pcm_s16le, 48000 Hz, stereo, s16, 1536 kb/s (default)
      Metadata:
        HANDLER_NAME    : SoundHandler
        VENDOR_ID       : [0][0][0][0]
        _STATISTICS_TAGS: BPS DURATION NUMBER_OF_FRAMES NUMBER_OF_BYTES
        BPS             : 193894
        DURATION        : 00:24:16.853000000
        NUMBER_OF_FRAMES: 68291
        NUMBER_OF_BYTES : 35309475
        _STATISTICS_WRITING_APP: mkvpropedit v66.0.0 ('Josie') 64-bit
        _STATISTICS_WRITING_DATE_UTC: 2025-06-03 10:19:23
        encoder         : Lavc61.19.100 pcm_s16le
frame=  187 fps=0.0 q=-0.0 size=N/A time=00:00:07.79 bitrate=N/A speed=  15x    frame=  428 fps=417 q=-0.0 size=N/A time=00:00:17.85 bitrate=N/A speed=17.4x    frame=  704 fps=454 q=-0.0 size=N/A time=00:00:29.36 bitrate=N/A speed=  19x    frame=  977 fps=473 q=-0.0 size=N/A time=00:00:40.74 bitrate=N/A speed=19.7x    frame= 1228 fps=477 q=-0.0 size=N/A time=00:00:51.21 bitrate=N/A speed=19.9x    frame= 1471 fps=475 q=-0.0 size=N/A time=00:01:01.35 bitrate=N/A speed=19.8x    frame= 1707 fps=473 q=-0.0 size=N/A time=00:01:11.19 bitrate=N/A speed=19.7x    frame= 1974 fps=478 q=-0.0 size=N/A time=00:01:22.33 bitrate=N/A speed=19.9x    frame= 2225 fps=479 q=-0.0 size=N/A time=00:01:32.80 bitrate=N/A speed=  20x    frame= 2471 fps=480 q=-0.0 size=N/A time=00:01:43.06 bitrate=N/A speed=  20x    frame= 2696 fps=475 q=-0.0 size=N/A time=00:01:52.44 bitrate=N/A speed=19.8x    frame= 2925 fps=473 q=-0.0 size=N/A time=00:02:01.99 bitrate=N/A speed=19.7x    frame= 3184 fps=475 q=-0.0 size=N/A time=00:02:12.79 bitrate=N/A speed=19.8x    frame= 3433 fps=475 q=-0.0 size=N/A time=00:02:23.18 bitrate=N/A speed=19.8x    frame= 3636 fps=470 q=-0.0 size=N/A time=00:02:31.65 bitrate=N/A speed=19.6x    frame= 3857 fps=467 q=-0.0 size=N/A time=00:02:40.86 bitrate=N/A speed=19.5x    frame= 4050 fps=462 q=-0.0 size=N/A time=00:02:48.91 bitrate=N/A speed=19.3x    frame= 4264 fps=459 q=-0.0 size=N/A time=00:02:57.84 bitrate=N/A speed=19.2x    frame= 4448 fps=454 q=-0.0 size=N/A time=00:03:05.51 bitrate=N/A speed=18.9x    frame= 4641 fps=450 q=-0.0 size=N/A time=00:03:13.56 bitrate=N/A speed=18.8x    frame= 4850 fps=448 q=-0.0 size=N/A time=00:03:22.28 bitrate=N/A speed=18.7x    frame= 5085 fps=448 q=-0.0 size=N/A time=00:03:32.08 bitrate=N/A speed=18.7x    frame= 5326 fps=449 q=-0.0 size=N/A time=00:03:42.13 bitrate=N/A speed=18.7x    frame= 5600 fps=452 q=-0.0 size=N/A time=00:03:53.56 bitrate=N/A speed=18.9x    frame= 5861 fps=454 q=-0.0 size=N/A time=00:04:04.45 bitrate=N/A speed=  19x    frame= 6103 fps=455 q=-0.0 size=N/A time=00:04:14.54 bitrate=N/A speed=  19x    frame= 6302 fps=453 q=-0.0 size=N/A time=00:04:22.84 bitrate=N/A speed=18.9x    frame= 6536 fps=453 q=-0.0 size=N/A time=00:04:32.60 bitrate=N/A speed=18.9x    frame= 6787 fps=454 q=-0.0 size=N/A time=00:04:43.07 bitrate=N/A speed=18.9x    frame= 7063 fps=457 q=-0.0 size=N/A time=00:04:54.58 bitrate=N/A speed=  19x    frame= 7323 fps=458 q=-0.0 size=N/A time=00:05:05.43 bitrate=N/A speed=19.1x    frame= 7585 fps=460 q=-0.0 size=N/A time=00:05:16.35 bitrate=N/A speed=19.2x    frame= 7831 fps=460 q=-0.0 size=N/A time=00:05:26.61 bitrate=N/A speed=19.2x    frame= 8073 fps=460 q=-0.0 size=N/A time=00:05:36.71 bitrate=N/A speed=19.2x    frame= 8328 fps=461 q=-0.0 size=N/A time=00:05:47.34 bitrate=N/A speed=19.2x    frame= 8590 fps=463 q=-0.0 size=N/A time=00:05:58.27 bitrate=N/A speed=19.3x    frame= 8842 fps=463 q=-0.0 size=N/A time=00:06:08.78 bitrate=N/A speed=19.3x    frame= 9112 fps=465 q=-0.0 size=N/A time=00:06:20.04 bitrate=N/A speed=19.4x    frame= 9334 fps=464 q=-0.0 size=N/A time=00:06:29.30 bitrate=N/A speed=19.4x    frame= 9562 fps=463 q=-0.0 size=N/A time=00:06:38.81 bitrate=N/A speed=19.3x    frame= 9831 fps=465 q=-0.0 size=N/A time=00:06:50.03 bitrate=N/A speed=19.4x    frame=10108 fps=467 q=-0.0 size=N/A time=00:07:01.58 bitrate=N/A speed=19.5x    frame=10345 fps=466 q=-0.0 size=N/A time=00:07:11.47 bitrate=N/A speed=19.5x    frame=10598 fps=467 q=-0.0 size=N/A time=00:07:22.02 bitrate=N/A speed=19.5x    frame=10801 fps=465 q=-0.0 size=N/A time=00:07:30.49 bitrate=N/A speed=19.4x    frame=11048 fps=466 q=-0.0 size=N/A time=00:07:40.79 bitrate=N/A speed=19.4x    frame=11270 fps=465 q=-0.0 size=N/A time=00:07:50.05 bitrate=N/A speed=19.4x    frame=11519 fps=465 q=-0.0 size=N/A time=00:08:00.43 bitrate=N/A speed=19.4x    frame=11776 fps=466 q=-0.0 size=N/A time=00:08:11.15 bitrate=N/A speed=19.4x    frame=12014 fps=466 q=-0.0 size=N/A time=00:08:21.08 bitrate=N/A speed=19.4x    frame=12250 fps=466 q=-0.0 size=N/A time=00:08:30.92 bitrate=N/A speed=19.4x    frame=12492 fps=466 q=-0.0 size=N/A time=00:08:41.02 bitrate=N/A speed=19.4x    frame=12755 fps=467 q=-0.0 size=N/A time=00:08:51.98 bitrate=N/A speed=19.5x    frame=13009 fps=467 q=-0.0 size=N/A time=00:09:02.58 bitrate=N/A speed=19.5x    frame=13271 fps=468 q=-0.0 size=N/A time=00:09:13.51 bitrate=N/A speed=19.5x    frame=13501 fps=468 q=-0.0 size=N/A time=00:09:23.10 bitrate=N/A speed=19.5x    frame=13777 fps=469 q=-0.0 size=N/A time=00:09:34.61 bitrate=N/A speed=19.5x    frame=14056 fps=470 q=-0.0 size=N/A time=00:09:46.25 bitrate=N/A speed=19.6x    frame=14333 fps=471 q=-0.0 size=N/A time=00:09:57.80 bitrate=N/A speed=19.6x    frame=14593 fps=472 q=-0.0 size=N/A time=00:10:08.64 bitrate=N/A speed=19.7x    frame=14872 fps=473 q=-0.0 size=N/A time=00:10:20.28 bitrate=N/A speed=19.7x    frame=15150 fps=474 q=-0.0 size=N/A time=00:10:31.88 bitrate=N/A speed=19.8x    frame=15423 fps=475 q=-0.0 size=N/A time=00:10:43.26 bitrate=N/A speed=19.8x    frame=15697 fps=476 q=-0.0 size=N/A time=00:10:54.69 bitrate=N/A speed=19.8x    frame=15955 fps=476 q=-0.0 size=N/A time=00:11:05.45 bitrate=N/A speed=19.9x    frame=16187 fps=476 q=-0.0 size=N/A time=00:11:15.13 bitrate=N/A speed=19.8x    frame=16430 fps=476 q=-0.0 size=N/A time=00:11:25.26 bitrate=N/A speed=19.8x    frame=16688 fps=476 q=-0.0 size=N/A time=00:11:36.02 bitrate=N/A speed=19.8x    frame=16931 fps=476 q=-0.0 size=N/A time=00:11:46.16 bitrate=N/A speed=19.8x    frame=17188 fps=476 q=-0.0 size=N/A time=00:11:56.88 bitrate=N/A speed=19.9x    frame=17434 fps=476 q=-0.0 size=N/A time=00:12:07.14 bitrate=N/A speed=19.9x    frame=17714 fps=477 q=-0.0 size=N/A time=00:12:18.82 bitrate=N/A speed=19.9x    frame=17950 fps=477 q=-0.0 size=N/A time=00:12:28.66 bitrate=N/A speed=19.9x    frame=18196 fps=477 q=-0.0 size=N/A time=00:12:38.92 bitrate=N/A speed=19.9x    frame=18478 fps=478 q=-0.0 size=N/A time=00:12:50.68 bitrate=N/A speed=19.9x    frame=18734 fps=478 q=-0.0 size=N/A time=00:13:01.36 bitrate=N/A speed=19.9x    frame=19013 fps=479 q=-0.0 size=N/A time=00:13:13.00 bitrate=N/A speed=  20x    frame=19276 fps=479 q=-0.0 size=N/A time=00:13:23.96 bitrate=N/A speed=  20x    frame=19580 fps=481 q=-0.0 size=N/A time=00:13:36.64 bitrate=N/A speed=20.1x    frame=19852 fps=481 q=-0.0 size=N/A time=00:13:47.99 bitrate=N/A speed=20.1x    frame=20123 fps=482 q=-0.0 size=N/A time=00:13:59.29 bitrate=N/A speed=20.1x    frame=20380 fps=482 q=-0.0 size=N/A time=00:14:10.01 bitrate=N/A speed=20.1x    frame=20605 fps=481 q=-0.0 size=N/A time=00:14:19.40 bitrate=N/A speed=20.1x    frame=20820 fps=481 q=-0.0 size=N/A time=00:14:28.36 bitrate=N/A speed=  20x    frame=21056 fps=480 q=-0.0 size=N/A time=00:14:38.21 bitrate=N/A speed=  20x    frame=21269 fps=480 q=-0.0 size=N/A time=00:14:47.09 bitrate=N/A speed=  20x    frame=21515 fps=480 q=-0.0 size=N/A time=00:14:57.35 bitrate=N/A speed=  20x    frame=21786 fps=480 q=-0.0 size=N/A time=00:15:08.65 bitrate=N/A speed=  20x    frame=22026 fps=480 q=-0.0 size=N/A time=00:15:18.66 bitrate=N/A speed=  20x    frame=22269 fps=480 q=-0.0 size=N/A time=00:15:28.80 bitrate=N/A speed=  20x    frame=22499 fps=480 q=-0.0 size=N/A time=00:15:38.39 bitrate=N/A speed=  20x    frame=22746 fps=479 q=-0.0 size=N/A time=00:15:48.69 bitrate=N/A speed=  20x    frame=22985 fps=479 q=-0.0 size=N/A time=00:15:58.66 bitrate=N/A speed=  20x    frame=23211 fps=479 q=-0.0 size=N/A time=00:16:08.09 bitrate=N/A speed=  20x    frame=23444 fps=479 q=-0.0 size=N/A time=00:16:17.81 bitrate=N/A speed=  20x    frame=23674 fps=478 q=-0.0 size=N/A time=00:16:27.40 bitrate=N/A speed=19.9x    frame=23884 fps=477 q=-0.0 size=N/A time=00:16:36.16 bitrate=N/A speed=19.9x    frame=24092 fps=477 q=-0.0 size=N/A time=00:16:44.83 bitrate=N/A speed=19.9x    frame=24298 fps=476 q=-0.0 size=N/A time=00:16:53.42 bitrate=N/A speed=19.9x    frame=24529 fps=476 q=-0.0 size=N/A time=00:17:03.06 bitrate=N/A speed=19.8x    frame=24735 fps=475 q=-0.0 size=N/A time=00:17:11.65 bitrate=N/A speed=19.8x    frame=24931 fps=474 q=-0.0 size=N/A time=00:17:19.83 bitrate=N/A speed=19.8x    frame=25146 fps=473 q=-0.0 size=N/A time=00:17:28.79 bitrate=N/A speed=19.7x    frame=25419 fps=474 q=-0.0 size=N/A time=00:17:40.18 bitrate=N/A speed=19.8x    frame=25711 fps=475 q=-0.0 size=N/A time=00:17:52.36 bitrate=N/A speed=19.8x    frame=26002 fps=476 q=-0.0 size=N/A time=00:18:04.50 bitrate=N/A speed=19.8x    frame=26280 fps=476 q=-0.0 size=N/A time=00:18:16.09 bitrate=N/A speed=19.9x    frame=26558 fps=477 q=-0.0 size=N/A time=00:18:27.68 bitrate=N/A speed=19.9x    frame=26842 fps=478 q=-0.0 size=N/A time=00:18:39.53 bitrate=N/A speed=19.9x    frame=27125 fps=478 q=-0.0 size=N/A time=00:18:51.33 bitrate=N/A speed=19.9x    frame=27409 fps=479 q=-0.0 size=N/A time=00:19:03.18 bitrate=N/A speed=  20x    frame=27671 fps=479 q=-0.0 size=N/A time=00:19:14.11 bitrate=N/A speed=  20x    frame=27940 fps=479 q=-0.0 size=N/A time=00:19:25.33 bitrate=N/A speed=  20x    frame=28195 fps=480 q=-0.0 size=N/A time=00:19:35.96 bitrate=N/A speed=  20x    frame=28473 fps=480 q=-0.0 size=N/A time=00:19:47.56 bitrate=N/A speed=  20x    frame=28760 fps=481 q=-0.0 size=N/A time=00:19:59.53 bitrate=N/A speed=20.1x    frame=29028 fps=481 q=-0.0 size=N/A time=00:20:10.70 bitrate=N/A speed=20.1x    frame=29226 fps=480 q=-0.0 size=N/A time=00:20:18.96 bitrate=N/A speed=  20x    frame=29488 fps=481 q=-0.0 size=N/A time=00:20:29.89 bitrate=N/A speed=  20x    frame=29788 fps=481 q=-0.0 size=N/A time=00:20:42.40 bitrate=N/A speed=20.1x    frame=30075 fps=482 q=-0.0 size=N/A time=00:20:54.37 bitrate=N/A speed=20.1x    frame=30354 fps=482 q=-0.0 size=N/A time=00:21:06.01 bitrate=N/A speed=20.1x    frame=30587 fps=482 q=-0.0 size=N/A time=00:21:15.73 bitrate=N/A speed=20.1x    frame=30827 fps=482 q=-0.0 size=N/A time=00:21:25.74 bitrate=N/A speed=20.1x    frame=31062 fps=482 q=-0.0 size=N/A time=00:21:35.54 bitrate=N/A speed=20.1x    frame=31342 fps=482 q=-0.0 size=N/A time=00:21:47.22 bitrate=N/A speed=20.1x    frame=31595 fps=482 q=-0.0 size=N/A time=00:21:57.77 bitrate=N/A speed=20.1x    frame=31880 fps=483 q=-0.0 size=N/A time=00:22:09.66 bitrate=N/A speed=20.1x    frame=32159 fps=483 q=-0.0 size=N/A time=00:22:21.29 bitrate=N/A speed=20.2x    frame=32432 fps=484 q=-0.0 size=N/A time=00:22:32.68 bitrate=N/A speed=20.2x    frame=32640 fps=483 q=-0.0 size=N/A time=00:22:41.36 bitrate=N/A speed=20.2x    frame=32876 fps=483 q=-0.0 size=N/A time=00:22:51.20 bitrate=N/A speed=20.1x    frame=33116 fps=483 q=-0.0 size=N/A time=00:23:01.21 bitrate=N/A speed=20.1x    frame=33355 fps=483 q=-0.0 size=N/A time=00:23:11.18 bitrate=N/A speed=20.1x    frame=33585 fps=482 q=-0.0 size=N/A time=00:23:20.77 bitrate=N/A speed=20.1x    frame=33786 fps=482 q=-0.0 size=N/A time=00:23:29.15 bitrate=N/A speed=20.1x    frame=34010 fps=481 q=-0.0 size=N/A time=00:23:38.50 bitrate=N/A speed=20.1x    frame=34160 fps=480 q=-0.0 size=N/A time=00:23:44.75 bitrate=N/A speed=  20x    frame=34320 fps=479 q=-0.0 size=N/A time=00:23:51.43 bitrate=N/A speed=  20x    frame=34553 fps=479 q=-0.0 size=N/A time=00:24:01.14 bitrate=N/A speed=  20x    frame=34791 fps=479 q=-0.0 size=N/A time=00:24:11.07 bitrate=N/A speed=  20x    [Parsed_ssim_10 @ 000001fe45aebb80] SSIM Y:0.994531 (22.621265) U:0.993938 (22.173572) V:0.994527 (22.618131) All:0.994432 (22.542858)
[out#0/null @ 000001fe45225b80] video:15006KiB audio:273164KiB subtitle:0KiB other streams:0KiB global headers:0KiB muxing overhead: unknown
frame=34922 fps=479 q=-0.0 Lsize=N/A time=00:24:16.53 bitrate=N/A speed=  20x    
